<?xml version="1.0" encoding="UTF-8"?>
<svg width="170px" height="24px" viewBox="0 0 170 24" version="1.1" xmlns="http://www.w3.org/2000/svg" xmlns:xlink="http://www.w3.org/1999/xlink">
    <!-- Generator: sketchtool 53.2 (72643) - https://sketchapp.com -->
    <title>597473F0-ABB3-48BA-AABC-AEFD80B8D8F5</title>
    <desc>Created with sketchtool.</desc>
    <defs>
        <polygon id="path-1" points="0 24 170 24 170 0 0 0"></polygon>
    </defs>
    <g id="Symbols" stroke="none" stroke-width="1" fill="none" fill-rule="evenodd">
        <g id="header-/-desktop" transform="translate(-24.000000, -24.000000)">
            <g id="_header">
                <g id="logo" transform="translate(24.000000, 24.000000)">
                    <g id="_logo-TD">
                        <polygon id="Fill-1" fill="#FFFFFF" points="41.85281 9.38442857 48.78201 9.38442857 48.78201 10.9264286 43.62591 10.9264286 43.62591 14.4972857 48.32216 14.4972857 48.32216 16.0401429 43.62591 16.0401429 43.62591 20.067 48.78201 20.067 48.78201 21.609 41.85281 21.609"></polygon>
                        <g id="Group-26">
                            <path d="M57.09807,11.2238571 C56.19452,10.8732857 55.69812,10.7155714 54.77672,10.7155714 C53.78392,10.7155714 52.61432,11.0652857 52.61432,12.345 C52.61432,14.691 57.93107,14.1492857 57.93107,18.1761429 C57.93107,20.7861429 55.89362,21.8181429 53.41162,21.8181429 C52.54462,21.8181429 51.69292,21.5747143 50.87862,21.3107143 L51.05457,19.683 C51.65722,19.9272857 52.72142,20.2778571 53.62582,20.2778571 C54.63477,20.2778571 56.05172,19.7172857 56.05172,18.2815714 C56.05172,15.549 50.73582,16.3024286 50.73582,12.5018571 C50.73582,10.3298571 52.47237,9.17357143 54.70617,9.17357143 C55.52132,9.17357143 56.49627,9.31414286 57.34712,9.61242857 L57.09807,11.2238571 Z" id="Fill-2" fill="#FFFFFF"></path>
                            <path d="M65.4432,20.2778571 C68.2975,20.2778571 69.51895,17.9318571 69.51895,15.4975714 C69.51895,13.0092857 68.1717,10.6992857 65.4432,10.7164286 C62.7147,10.6992857 61.3683,13.0092857 61.3683,15.4975714 C61.3683,17.9318571 62.5889,20.2778571 65.4432,20.2778571 M65.4432,9.17442857 C69.2002,9.17442857 71.3966,11.8735714 71.3966,15.4975714 C71.3966,19.209 69.2206,21.8181429 65.4432,21.8181429 C61.66835,21.8181429 59.4898,19.209 59.4898,15.4975714 C59.4898,11.8735714 61.6862,9.17442857 65.4432,9.17442857" id="Fill-4" fill="#FFFFFF"></path>
                            <path d="M82.834625,16.5596571 C82.834625,19.9916571 81.079375,21.8302286 78.031275,21.8302286 C74.982325,21.8302286 73.228775,19.9916571 73.228775,16.5596571 L73.228775,9.39651429 L75.001025,9.39651429 L75.001025,16.3308 C75.001025,18.6785143 75.744775,20.2882286 78.031275,20.2882286 C80.317775,20.2882286 81.061525,18.6785143 81.061525,16.3308 L81.061525,9.39651429 L82.834625,9.39651429 L82.834625,16.5596571 Z" id="Fill-6" fill="#FFFFFF"></path>
                            <path d="M86.973785,14.6394857 L88.480835,14.6394857 C90.163835,14.6394857 91.156635,13.9023429 91.156635,12.7297714 C91.156635,11.6266286 90.304935,10.9263429 88.675485,10.9263429 L86.973785,10.9263429 L86.973785,14.6394857 Z M85.200685,9.3852 L88.231785,9.3852 C90.678085,9.3852 93.034285,9.77005714 93.034285,12.6937714 C93.034285,14.1834857 91.918235,15.2352 90.482585,15.4794857 L90.482585,15.5137714 C91.032535,15.7246286 91.297735,15.9877714 91.687885,16.7403429 L94.027085,21.6080571 L92.006635,21.6080571 L90.111135,17.3703429 C89.561185,16.1797714 88.977235,16.1797714 88.037135,16.1797714 L86.973785,16.1797714 L86.973785,21.6080571 L85.200685,21.6080571 L85.200685,9.3852 Z" id="Fill-8" fill="#FFFFFF"></path>
                            <path d="M100.919905,20.2778571 C103.774205,20.2778571 104.995655,17.9318571 104.995655,15.4975714 C104.995655,13.0092857 103.648405,10.6992857 100.919905,10.7164286 C98.192255,10.6992857 96.845855,13.0092857 96.845855,15.4975714 C96.845855,17.9318571 98.066455,20.2778571 100.919905,20.2778571 M100.919905,9.17442857 C104.676905,9.17442857 106.874155,11.8735714 106.874155,15.4975714 C106.874155,19.209 104.695605,21.8181429 100.919905,21.8181429 C97.145905,21.8181429 94.965655,19.209 94.965655,15.4975714 C94.965655,11.8735714 97.163755,9.17442857 100.919905,9.17442857" id="Fill-10" fill="#FFFFFF"></path>
                            <polygon id="Fill-12" fill="#FFFFFF" points="35.76545 6.34465714 30.37815 6.34465714 30.37815 4.79837143 43.1426 4.79837143 43.1426 6.34465714 37.78845 6.34465714 37.78845 21.6086571 35.76545 21.6086571"></polygon>
                            <mask id="mask-2" fill="white">
                                <use xlink:href="#path-1"></use>
                            </mask>
                            <g id="Clip-15"></g>
                            <polygon id="Fill-14" fill="#FFFFFF" mask="url(#mask-2)" points="125.0503 21.594 126.8523 21.594 126.8523 9.16714286 125.0503 9.16714286"></polygon>
                            <path d="M131.170045,14.5076571 L132.701745,14.5076571 C134.413645,14.5076571 135.422595,13.7585143 135.422595,12.5670857 C135.422595,11.4442286 134.557295,10.7319429 132.899795,10.7319429 L131.170045,10.7319429 L131.170045,14.5076571 Z M129.368895,9.1668 L132.449295,9.1668 C134.936395,9.1668 137.332545,9.55765714 137.332545,12.5293714 C137.332545,14.0430857 136.196095,15.1119429 134.737495,15.3613714 L134.737495,15.3973714 C135.295945,15.6116571 135.565395,15.8773714 135.964045,16.6428 L138.340645,21.5936571 L136.287895,21.5936571 L134.358395,17.2848 C133.801645,16.0736571 133.206645,16.0736571 132.251245,16.0736571 L131.170045,16.0736571 L131.170045,21.5936571 L129.368895,21.5936571 L129.368895,9.1668 Z" id="Fill-16" fill="#FFFFFF" mask="url(#mask-2)"></path>
                            <polygon id="Fill-17" fill="#FFFFFF" mask="url(#mask-2)" points="139.953945 9.3966 146.867845 9.3966 146.867845 10.9343143 141.721945 10.9343143 141.721945 14.5000286 146.407995 14.5000286 146.407995 16.0368857 141.721945 16.0368857 141.721945 20.0560286 146.867845 20.0560286 146.867845 21.5928857 139.953945 21.5928857"></polygon>
                            <polygon id="Fill-18" fill="#FFFFFF" mask="url(#mask-2)" points="151.946085 10.9246286 148.104935 10.9246286 148.104935 9.38434286 157.556935 9.38434286 157.556935 10.9246286 153.715785 10.9246286 153.715785 21.5934857 151.946085 21.5934857"></polygon>
                            <path d="M163.945705,20.2401429 C166.846755,20.2401429 168.092005,17.8538571 168.092005,15.3792857 C168.092005,12.8498571 166.721805,10.5004286 163.945705,10.5184286 C161.172155,10.5004286 159.802805,12.8498571 159.802805,15.3792857 C159.802805,17.8538571 161.045505,20.2401429 163.945705,20.2401429 M163.945705,8.95242857 C167.764755,8.95242857 170.000255,11.6952857 170.000255,15.3792857 C170.000255,19.1541429 167.783455,21.807 163.945705,21.807 C160.107955,21.807 157.892855,19.1541429 157.892855,15.3792857 C157.892855,11.6952857 160.129205,8.95242857 163.945705,8.95242857" id="Fill-19" fill="#FFFFFF" mask="url(#mask-2)"></path>
                            <path d="M111.343625,20.0476286 L112.752925,20.0476286 C117.647225,20.0476286 120.640925,18.3804857 120.640925,13.1527714 C120.640925,7.94991429 117.717775,6.13362857 113.861325,6.13362857 L111.343625,6.13362857 L111.343625,20.0476286 Z M109.382675,4.55905714 L113.659875,4.55905714 C119.840225,4.55905714 122.541525,8.07591429 122.541525,13.0584857 C122.541525,19.2393429 118.107925,21.6084857 112.398475,21.6084857 L109.382675,21.6084857 L109.382675,4.55905714 Z" id="Fill-20" fill="#FFFFFF" mask="url(#mask-2)"></path>
                            <path d="M0.47379,7.32154286 C1.21244,7.16468571 8.63974,2.71782857 17.09299,2.61068571 C17.67014,2.60468571 18.23879,2.64325714 18.79214,2.71011429 C23.65159,3.27068571 23.71534,5.35354286 24.00009,5.28068571 C24.39874,5.18382857 25.03624,4.59325714 25.05409,4.49554286 C25.07534,4.36782857 24.39874,1.70554286 19.23329,0.403542857 C13.85109,-0.955028571 2.12279,1.48611429 0.99399,2.29697143 C0.07684,2.87725714 -0.42891,7.68668571 0.47379,7.32154286" id="Fill-21" fill="#237131" mask="url(#mask-2)"></path>
                            <path d="M0.47379,7.32154286 C1.21244,7.16468571 8.63974,2.71782857 17.09299,2.61068571 C17.67014,2.60468571 18.23879,2.64325714 18.79214,2.71011429 C23.65159,3.27068571 23.71534,5.35354286 24.00009,5.28068571 C24.09699,5.25754286 24.20579,5.20611429 24.31714,5.13925714 C24.35794,4.9944 23.33964,2.92354286 19.23329,2.43925714 C11.52379,1.50068571 0.01564,6.1884 0.02244,6.58097143 C0.07174,7.1064 0.21539,7.42697143 0.47379,7.32154286" id="Fill-22" fill="#125428" mask="url(#mask-2)"></path>
                            <path d="M17.137275,22.8204 C24.056275,19.3335429 25.735875,11.3312571 25.558225,9.52011429 C25.442625,8.89182857 24.553525,7.9884 24.358875,8.26011429 C21.716225,17.1949714 15.293625,19.8358286 13.294425,20.7804 C12.676475,21.1524 15.008875,23.2926857 16.564375,23.0621143 C16.683375,23.0389714 16.934125,22.9275429 17.137275,22.8204" id="Fill-23" fill="#FFFFFF" mask="url(#mask-2)"></path>
                            <path d="M17.137275,22.8204 C20.085925,21.3341143 22.081725,19.0292571 23.389875,16.7321143 C23.567525,16.3284 18.432675,17.6355429 18.225275,17.8198286 C16.171675,19.5101143 14.239625,20.3338286 13.294425,20.7804 C12.676475,21.1524 15.008875,23.2926857 16.564375,23.0621143 C16.683375,23.0389714 16.934125,22.9275429 17.137275,22.8204" id="Fill-24" fill="#D1D3D4" mask="url(#mask-2)"></path>
                            <path d="M15.21602,23.5766571 C13.67752,23.4198 10.69147,21.5238 10.32597,17.5758 C9.80407,13.3852286 11.44032,6.6558 11.67322,5.65208571 C11.98007,4.34322857 12.04382,4.3218 11.38507,4.3218 C9.97492,4.3218 7.37562,5.38122857 7.22347,5.9598 C7.09937,6.43894286 5.89237,12.4355143 6.58342,16.9543714 C6.88687,18.9343714 7.50057,20.3340857 8.18227,21.3352286 C9.06457,22.6072286 11.42672,24.9240857 15.24662,23.6083714 C15.25852,23.6040857 15.22452,23.5766571 15.21602,23.5766571" id="Fill-25" fill="#ECC505" mask="url(#mask-2)"></path>
                        </g>
                    </g>
                </g>
            </g>
        </g>
    </g>
</svg>